<svg width="105" height="20" viewBox="0 0 105 20" fill="none" xmlns="http://www.w3.org/2000/svg">
<path d="M20 10C20 4.48 15.52 0 10 0C4.48 0 0 4.48 0 10C0 14.84 3.44 18.87 8 19.8V13H6V10H8V7.5C8 5.57 9.57 4 11.5 4H14V7H12C11.45 7 11 7.45 11 8V10H14V13H11V19.95C16.05 19.45 20 15.19 20 10Z" fill="white"/>
<path d="M58.751 1H61.818L55.118 8.625L63 19H56.828L51.995 12.707L46.464 19H43.394L50.561 10.845L43 1H49.328L53.698 6.752L58.751 1ZM57.675 17.172H59.375L48.404 2.732H46.58L57.675 17.172Z" fill="white"/>
<path d="M90.8 0H99.2C102.4 0 105 2.6 105 5.8V14.2C105 15.7383 104.389 17.2135 103.301 18.3012C102.214 19.3889 100.738 20 99.2 20H90.8C87.6 20 85 17.4 85 14.2V5.8C85 4.26174 85.6111 2.78649 86.6988 1.69878C87.7865 0.61107 89.2617 0 90.8 0ZM90.6 2C89.6452 2 88.7295 2.37928 88.0544 3.05442C87.3793 3.72955 87 4.64522 87 5.6V14.4C87 16.39 88.61 18 90.6 18H99.4C100.355 18 101.27 17.6207 101.946 16.9456C102.621 16.2705 103 15.3548 103 14.4V5.6C103 3.61 101.39 2 99.4 2H90.6ZM100.25 3.5C100.582 3.5 100.899 3.6317 101.134 3.86612C101.368 4.10054 101.5 4.41848 101.5 4.75C101.5 5.08152 101.368 5.39946 101.134 5.63388C100.899 5.8683 100.582 6 100.25 6C99.9185 6 99.6005 5.8683 99.3661 5.63388C99.1317 5.39946 99 5.08152 99 4.75C99 4.41848 99.1317 4.10054 99.3661 3.86612C99.6005 3.6317 99.9185 3.5 100.25 3.5ZM95 5C96.3261 5 97.5979 5.52678 98.5355 6.46447C99.4732 7.40215 100 8.67392 100 10C100 11.3261 99.4732 12.5979 98.5355 13.5355C97.5979 14.4732 96.3261 15 95 15C93.6739 15 92.4021 14.4732 91.4645 13.5355C90.5268 12.5979 90 11.3261 90 10C90 8.67392 90.5268 7.40215 91.4645 6.46447C92.4021 5.52678 93.6739 5 95 5ZM95 7C94.2044 7 93.4413 7.31607 92.8787 7.87868C92.3161 8.44129 92 9.20435 92 10C92 10.7956 92.3161 11.5587 92.8787 12.1213C93.4413 12.6839 94.2044 13 95 13C95.7956 13 96.5587 12.6839 97.1213 12.1213C97.6839 11.5587 98 10.7956 98 10C98 9.20435 97.6839 8.44129 97.1213 7.87868C96.5587 7.31607 95.7956 7 95 7Z" fill="white"/>
</svg>
