<svg width="20" height="20" viewBox="0 0 20 20" fill="none" xmlns="http://www.w3.org/2000/svg">
<g clip-path="url(#clip0_2_7)">
<path d="M18.125 21.25H1.875C0.8375 21.25 0 20.3567 0 19.25V3.25C0 2.14333 0.8375 1.25 1.875 1.25H18.125C19.1625 1.25 20 2.14333 20 3.25V19.25C20 20.3567 19.1625 21.25 18.125 21.25ZM1.875 2.58333C1.525 2.58333 1.25 2.87667 1.25 3.25V19.25C1.25 19.6233 1.525 19.9167 1.875 19.9167H18.125C18.475 19.9167 18.75 19.6233 18.75 19.25V3.25C18.75 2.87667 18.475 2.58333 18.125 2.58333H1.875Z" fill="#991C46"/>
<path d="M5.625 5C5.275 5 5 4.725 5 4.375V0.625C5 0.275 5.275 0 5.625 0C5.975 0 6.25 0.275 6.25 0.625V4.375C6.25 4.725 5.975 5 5.625 5ZM14.375 5C14.025 5 13.75 4.725 13.75 4.375V0.625C13.75 0.275 14.025 0 14.375 0C14.725 0 15 0.275 15 0.625V4.375C15 4.725 14.725 5 14.375 5ZM19.375 7.5H0.625C0.275 7.5 0 7.225 0 6.875C0 6.525 0.275 6.25 0.625 6.25H19.375C19.725 6.25 20 6.525 20 6.875C20 7.225 19.725 7.5 19.375 7.5Z" fill="black"/>
</g>
<defs>
<clipPath id="clip0_2_7">
<rect width="20" height="20" fill="white"/>
</clipPath>
</defs>
</svg>
